<?xml version="1.0" encoding="utf-8"?>
<!-- Generator: Adobe Illustrator 24.1.0, SVG Export Plug-In . SVG Version: 6.00 Build 0)  -->
<svg version="1.1" id="Layer_1" xmlns="http://www.w3.org/2000/svg" xmlns:xlink="http://www.w3.org/1999/xlink" x="0px" y="0px"
	 viewBox="0 0 792 612" style="enable-background:new 0 0 792 612;" xml:space="preserve">
<style type="text/css">
	.st0{fill:#F97373;}
	.st1{fill:#E23939;}
	.st2{fill:#5E0000;}
	.st3{fill:#BB0000;}
	.st4{fill:#2D2D2D;}
	.st5{fill:#FFFFFF;}
</style>
<g>
	<g>
		<g>
			
				<ellipse transform="matrix(0.7071 -0.7071 0.7071 0.7071 -42.7507 349.3107)" class="st0" cx="400.28" cy="226.26" rx="144.7" ry="144.7"/>
		</g>
		<circle class="st1" cx="375.12" cy="245.43" r="112.1"/>
		<g>
			<path class="st2" d="M354.56,346.13c-0.6,0-1.1-0.46-1.15-1.06c-0.05-0.64,0.43-1.19,1.06-1.24l0.15-0.01
				c0.64-0.03,1.18,0.46,1.21,1.09c0.03,0.64-0.46,1.18-1.09,1.21l-0.08,0C354.62,346.13,354.59,346.13,354.56,346.13z
				 M345.32,346.13c-0.02,0-0.04,0-0.06,0l-0.15-0.01c-0.64-0.05-1.11-0.6-1.06-1.24c0.05-0.63,0.61-1.12,1.24-1.06
				c0.64,0.03,1.17,0.58,1.14,1.21C346.4,345.65,345.93,346.13,345.32,346.13z M363.86,345.06c-0.56,0-1.05-0.41-1.14-0.98
				c-0.1-0.63,0.33-1.22,0.96-1.32c0.63-0.11,1.27,0.3,1.38,0.92c0.11,0.63-0.26,1.22-0.89,1.33l-0.14,0.02
				C363.98,345.06,363.92,345.06,363.86,345.06z M336.02,345.06c-0.07,0-0.14-0.01-0.21-0.02l-0.09-0.01
				c-0.63-0.1-1.06-0.69-0.96-1.32c0.1-0.63,0.68-1.05,1.32-0.96l0.14,0.02c0.63,0.11,1.04,0.71,0.93,1.34
				C337.06,344.67,336.57,345.06,336.02,345.06z M372.97,342.92c-0.49,0-0.94-0.31-1.1-0.8c-0.19-0.61,0.14-1.26,0.75-1.45
				l0.14-0.04c0.62-0.18,1.25,0.17,1.43,0.79c0.18,0.61-0.18,1.25-0.79,1.43l-0.08,0.02C373.21,342.9,373.09,342.92,372.97,342.92z
				 M326.9,342.91c-0.1,0-0.21-0.01-0.31-0.04l-0.14-0.04c-0.61-0.19-0.94-0.84-0.75-1.45c0.19-0.61,0.84-0.94,1.45-0.75
				c0.61,0.18,1,0.83,0.83,1.44C327.83,342.58,327.4,342.91,326.9,342.91z M381.77,339.73c-0.45,0-0.88-0.27-1.06-0.71
				c-0.25-0.59,0.03-1.26,0.62-1.51c0.58-0.26,1.3-0.01,1.56,0.57c0.26,0.58,0.04,1.25-0.55,1.5l-0.13,0.06
				C382.07,339.7,381.92,339.73,381.77,339.73z M318.11,339.72c-0.15,0-0.31-0.03-0.46-0.1l-0.09-0.04
				c-0.59-0.25-0.87-0.92-0.62-1.51c0.25-0.59,0.92-0.87,1.51-0.62l0.13,0.05c0.58,0.25,0.85,0.94,0.59,1.52
				C318.98,339.46,318.55,339.72,318.11,339.72z M390.13,335.53c-0.4,0-0.8-0.21-1.01-0.59c-0.31-0.56-0.11-1.26,0.44-1.57
				c0.55-0.32,1.29-0.16,1.62,0.39c0.32,0.55,0.18,1.23-0.37,1.56l-0.12,0.07C390.51,335.49,390.32,335.53,390.13,335.53z
				 M309.74,335.51c-0.2,0-0.4-0.05-0.58-0.16l-0.07-0.04c-0.56-0.31-0.76-1.01-0.45-1.57c0.31-0.56,1.01-0.76,1.57-0.45l0.13,0.07
				c0.55,0.32,0.73,1.03,0.41,1.58C310.52,335.31,310.14,335.51,309.74,335.51z M397.95,330.39c-0.35,0-0.7-0.16-0.93-0.47
				c-0.38-0.51-0.27-1.23,0.24-1.61l0.09-0.07c0.51-0.38,1.23-0.28,1.61,0.23c0.38,0.51,0.28,1.23-0.23,1.62l-0.1,0.07
				C398.43,330.32,398.19,330.39,397.95,330.39z M301.92,330.37c-0.24,0-0.49-0.08-0.7-0.24l-0.07-0.05
				c-0.52-0.37-0.64-1.09-0.26-1.61c0.37-0.52,1.09-0.63,1.61-0.26l0.12,0.09c0.51,0.39,0.6,1.11,0.22,1.62
				C302.61,330.21,302.27,330.37,301.92,330.37z M405.12,324.38c-0.3,0-0.6-0.12-0.83-0.35c-0.44-0.46-0.43-1.19,0.03-1.63l0.1-0.09
				c0.47-0.43,1.2-0.41,1.63,0.06c0.43,0.47,0.41,1.2-0.06,1.63l-0.07,0.07C405.7,324.28,405.41,324.38,405.12,324.38z
				 M294.75,324.35c-0.28,0-0.57-0.1-0.79-0.32l-0.08-0.07c-0.47-0.43-0.49-1.16-0.06-1.63c0.44-0.46,1.16-0.49,1.63-0.06l0.09,0.09
				c0.46,0.44,0.48,1.17,0.04,1.63C295.36,324.23,295.06,324.35,294.75,324.35z M411.55,317.59c-0.26,0-0.52-0.09-0.74-0.27
				c-0.49-0.41-0.55-1.14-0.14-1.62l0.07-0.09c0.41-0.49,1.13-0.56,1.62-0.15c0.49,0.41,0.56,1.13,0.15,1.62l-0.08,0.09
				C412.21,317.45,411.88,317.59,411.55,317.59z M288.27,317.53c-0.31,0-0.61-0.13-0.83-0.39l-0.09-0.11
				c-0.4-0.5-0.32-1.22,0.17-1.62c0.5-0.4,1.22-0.32,1.62,0.17c0.41,0.49,0.38,1.25-0.1,1.66
				C288.81,317.43,288.54,317.53,288.27,317.53z M417.16,310.09c-0.21,0-0.43-0.06-0.62-0.18c-0.54-0.34-0.7-1.05-0.35-1.59
				l0.08-0.12c0.35-0.53,1.07-0.67,1.6-0.32c0.53,0.35,0.67,1.07,0.32,1.6l-0.05,0.08C417.92,309.9,417.54,310.09,417.16,310.09z
				 M282.72,310.05c-0.38,0-0.75-0.18-0.97-0.52l-0.06-0.09c-0.35-0.53-0.21-1.25,0.32-1.6c0.53-0.35,1.25-0.21,1.6,0.32l0.07,0.11
				c0.35,0.53,0.2,1.25-0.34,1.6C283.16,309.99,282.94,310.05,282.72,310.05z M421.86,301.99c-0.17,0-0.34-0.04-0.5-0.12
				c-0.57-0.28-0.81-0.97-0.53-1.54l0.06-0.12c0.29-0.57,0.98-0.8,1.55-0.51c0.57,0.29,0.79,0.98,0.51,1.55l-0.04,0.09
				C422.7,301.75,422.29,301.99,421.86,301.99z M278.03,301.96c-0.42,0-0.83-0.23-1.03-0.64l-0.05-0.1
				c-0.29-0.57-0.06-1.26,0.51-1.55c0.57-0.29,1.26-0.06,1.55,0.51l0.05,0.11c0.29,0.57,0.05,1.26-0.52,1.55
				C278.38,301.92,278.2,301.96,278.03,301.96z M425.58,293.4c-0.12,0-0.25-0.02-0.38-0.06c-0.6-0.21-0.92-0.87-0.71-1.47l0.05-0.14
				c0.22-0.6,0.89-0.9,1.49-0.67c0.6,0.23,0.9,0.89,0.67,1.49l-0.03,0.08C426.51,293.1,426.06,293.4,425.58,293.4z M274.31,293.37
				c-0.47,0-0.91-0.29-1.08-0.76l-0.04-0.11c-0.22-0.6,0.09-1.26,0.69-1.48c0.6-0.22,1.26,0.09,1.48,0.69l0.04,0.11
				c0.22,0.6-0.09,1.26-0.69,1.48C274.58,293.35,274.44,293.37,274.31,293.37z M428.28,284.43c-0.09,0-0.17-0.01-0.26-0.03
				c-0.62-0.15-1-0.77-0.86-1.39l0.03-0.11c0.14-0.62,0.76-1,1.39-0.86c0.62,0.15,1,0.77,0.86,1.39l-0.03,0.11
				C429.28,284.07,428.8,284.43,428.28,284.43z M271.62,284.4c-0.52,0-1-0.36-1.12-0.89l-0.02-0.1c-0.15-0.62,0.22-1.24,0.84-1.4
				c0.62-0.15,1.24,0.22,1.4,0.84l0.03,0.13c0.15,0.62-0.24,1.24-0.86,1.39C271.8,284.39,271.71,284.4,271.62,284.4z M429.91,275.21
				c-0.04,0-0.08,0-0.12-0.01c-0.63-0.06-1.1-0.63-1.03-1.26l0.02-0.15c0.08-0.63,0.67-1.08,1.29-1c0.63,0.08,1.08,0.66,1,1.29
				l-0.01,0.08C430.99,274.77,430.49,275.21,429.91,275.21z M270,275.19c-0.58,0-1.08-0.43-1.14-1.02l-0.01-0.12
				c-0.07-0.63,0.38-1.2,1.02-1.28c0.63-0.08,1.2,0.38,1.28,1.02l0.01,0.11c0.07,0.63-0.38,1.21-1.01,1.28
				C270.08,275.18,270.04,275.19,270,275.19z M430.46,265.87c-0.64,0-1.15-0.52-1.15-1.15v-0.12c0,0,0,0,0-0.01
				c0-0.02,0-0.03,0-0.05v-0.12c0-0.64,0.52-1.15,1.15-1.15s1.15,0.52,1.15,1.15v0.12c0,0,0,0,0,0.01c0,0.02,0,0.03,0,0.05v0.12
				C431.61,265.36,431.09,265.87,430.46,265.87z M269.45,265.84c-0.64,0-1.15-0.52-1.15-1.15v-0.09c0-0.64,0.52-1.17,1.15-1.17
				s1.15,0.5,1.15,1.14v0.12C270.6,265.33,270.09,265.84,269.45,265.84z M269.98,256.5c-0.04,0-0.09,0-0.13-0.01
				c-0.63-0.07-1.09-0.65-1.01-1.28l0.01-0.11c0.07-0.63,0.64-1.09,1.28-1.02c0.63,0.07,1.09,0.64,1.02,1.28l-0.01,0.12
				C271.06,256.06,270.56,256.5,269.98,256.5z M429.91,256.36c-0.58,0-1.09-0.44-1.15-1.04c-0.08-0.63,0.36-1.25,0.99-1.33
				c0.63-0.08,1.2,0.32,1.29,0.96l0.02,0.15c0.06,0.63-0.4,1.2-1.03,1.26C429.99,256.36,429.95,256.36,429.91,256.36z
				 M271.58,247.28c-0.09,0-0.18-0.01-0.26-0.03c-0.62-0.15-1.01-0.77-0.86-1.39l0.03-0.11c0.15-0.62,0.77-1,1.39-0.86
				c0.62,0.15,1.01,0.77,0.86,1.39l-0.03,0.11C272.58,246.92,272.11,247.28,271.58,247.28z M428.29,247.14c-0.52,0-1-0.36-1.12-0.89
				l-0.03-0.12c-0.14-0.62,0.24-1.24,0.86-1.39c0.63-0.14,1.24,0.24,1.39,0.86l0.03,0.11c0.15,0.62-0.24,1.24-0.86,1.39
				C428.47,247.13,428.38,247.14,428.29,247.14z M274.25,238.3c-0.13,0-0.26-0.02-0.39-0.07c-0.6-0.22-0.91-0.88-0.69-1.48
				l0.04-0.11c0.22-0.6,0.88-0.9,1.48-0.69c0.6,0.22,0.91,0.88,0.69,1.48l-0.04,0.1C275.17,238.01,274.73,238.3,274.25,238.3z
				 M425.61,238.17c-0.48,0-0.92-0.3-1.09-0.77c-0.23-0.6,0.06-1.3,0.66-1.53c0.59-0.23,1.25,0.03,1.47,0.63l0.05,0.13
				c0.21,0.6-0.1,1.26-0.71,1.47C425.86,238.15,425.74,238.17,425.61,238.17z M277.96,229.7c-0.17,0-0.34-0.04-0.51-0.12
				c-0.57-0.28-0.81-0.97-0.52-1.54c0,0,0.04-0.07,0.04-0.08c0.29-0.57,0.99-0.81,1.56-0.53c0.57,0.29,0.81,0.96,0.52,1.53
				l-1.05-0.48l1,0.58C278.79,229.47,278.38,229.7,277.96,229.7z M421.89,229.58c-0.43,0-0.84-0.24-1.04-0.66
				c-0.29-0.57-0.09-1.3,0.48-1.59c0.57-0.29,1.24-0.1,1.53,0.46l0.07,0.13c0.28,0.57,0.03,1.26-0.54,1.54
				C422.23,229.55,422.06,229.58,421.89,229.58z M282.63,221.59c-0.22,0-0.43-0.06-0.63-0.19c-0.53-0.35-0.68-1.06-0.34-1.6
				l0.07-0.11c0.35-0.53,1.07-0.67,1.6-0.32c0.53,0.35,0.67,1.07,0.32,1.6l-0.06,0.09C283.38,221.41,283.01,221.59,282.63,221.59z
				 M417.2,221.49c-0.38,0-0.75-0.19-0.97-0.53c-0.35-0.53-0.24-1.29,0.29-1.64c0.53-0.35,1.22-0.25,1.57,0.28l0.07,0.11
				c0.35,0.54,0.19,1.25-0.34,1.59C417.63,221.43,417.42,221.49,417.2,221.49z M288.22,214.08c-0.26,0-0.52-0.09-0.74-0.27
				c-0.49-0.41-0.55-1.14-0.15-1.62c0,0,0.02-0.03,0.03-0.03c0.41-0.48,1.16-0.58,1.64-0.18c0.49,0.41,0.58,1.1,0.18,1.59
				c0,0-0.08,0.09-0.08,0.1C288.88,213.94,288.55,214.08,288.22,214.08z M411.61,213.99c-0.33,0-0.65-0.14-0.88-0.41l-0.08-0.1
				c-0.41-0.49-0.34-1.22,0.15-1.62c0.49-0.41,1.22-0.34,1.62,0.15l0.07,0.08c0.41,0.48,0.35,1.21-0.13,1.63
				C412.14,213.9,411.87,213.99,411.61,213.99z M294.64,207.27c-0.31,0-0.61-0.12-0.84-0.36c-0.44-0.46-0.42-1.19,0.04-1.63
				l0.08-0.08c0.46-0.44,1.19-0.42,1.63,0.04c0.44,0.46,0.42,1.19-0.04,1.63l-0.08,0.08C295.21,207.16,294.92,207.27,294.64,207.27z
				 M405.18,207.18c-0.29,0-0.58-0.11-0.8-0.32c-0.47-0.43-0.53-1.2-0.09-1.66c0.44-0.47,1.13-0.52,1.6-0.09l0.1,0.09
				c0.46,0.44,0.47,1.17,0.03,1.63C405.78,207.06,405.48,207.18,405.18,207.18z M301.8,201.24c-0.35,0-0.7-0.16-0.93-0.46
				c-0.38-0.51-0.28-1.23,0.23-1.61l0.08-0.06c0.51-0.39,1.23-0.29,1.62,0.22c0.39,0.51,0.29,1.23-0.22,1.62l-0.1,0.08
				C302.28,201.16,302.04,201.24,301.8,201.24z M398.01,201.16c-0.24,0-0.49-0.08-0.7-0.23c-0.51-0.38-0.66-1.13-0.29-1.64
				c0.38-0.51,1.06-0.65,1.57-0.28l0.11,0.08c0.51,0.38,0.61,1.11,0.22,1.62C398.7,201.01,398.36,201.16,398.01,201.16z
				 M309.61,196.08c-0.4,0-0.78-0.2-1-0.57c-0.32-0.55-0.14-1.26,0.41-1.58c0,0,0.05-0.03,0.06-0.03c0.55-0.32,1.28-0.15,1.6,0.4
				c0.32,0.55,0.16,1.24-0.39,1.56l-0.1,0.06C310.01,196.03,309.8,196.08,309.61,196.08z M390.19,196.02
				c-0.19,0-0.39-0.05-0.57-0.15l-0.1-0.06c-0.55-0.32-0.74-1.02-0.42-1.58c0.32-0.55,1.03-0.74,1.58-0.42l0.1,0.06
				c0.55,0.32,0.74,1.02,0.43,1.57C390.98,195.81,390.59,196.02,390.19,196.02z M317.96,191.86c-0.45,0-0.87-0.26-1.06-0.7
				c-0.25-0.58,0.02-1.26,0.6-1.52l0.09-0.04c0.58-0.26,1.26,0,1.52,0.59c0.26,0.58,0,1.26-0.59,1.52l-0.12,0.05
				C318.26,191.83,318.11,191.86,317.96,191.86z M381.83,191.81c-0.16,0-0.32-0.03-0.47-0.1c-0.59-0.25-0.9-0.94-0.66-1.53
				c0.25-0.59,0.88-0.88,1.47-0.63l0.12,0.05c0.58,0.26,0.84,0.94,0.59,1.52C382.69,191.55,382.27,191.81,381.83,191.81z
				 M326.74,188.65c-0.5,0-0.95-0.32-1.1-0.82c-0.18-0.61,0.16-1.25,0.77-1.44l0.12-0.04c0.61-0.18,1.25,0.17,1.43,0.78
				s-0.17,1.25-0.78,1.43l-0.1,0.03C326.97,188.63,326.86,188.65,326.74,188.65z M373.02,188.61c-0.11,0-0.21-0.01-0.32-0.05
				l0.28-1.12l-0.39,1.09c-0.61-0.18-0.96-0.82-0.79-1.43c0.18-0.61,0.81-0.96,1.43-0.79c0,0,0.07,0.02,0.07,0.02
				c0.61,0.18,0.98,0.83,0.8,1.44C373.96,188.28,373.52,188.61,373.02,188.61z M335.85,186.48c-0.55,0-1.03-0.39-1.13-0.95
				c-0.11-0.63,0.3-1.23,0.93-1.34l0.13-0.02c0.63-0.1,1.22,0.32,1.33,0.95s-0.32,1.22-0.95,1.33l-0.1,0.02
				C335.99,186.48,335.92,186.48,335.85,186.48z M363.92,186.46c-0.06,0-0.13-0.01-0.19-0.02l0.14-1.15l-0.25,1.13
				c-0.63-0.1-1.05-0.7-0.95-1.33c0.1-0.63,0.7-1.05,1.33-0.95c0,0,0.07,0.01,0.07,0.01c0.63,0.11,1.07,0.71,0.96,1.34
				C364.93,186.06,364.46,186.46,363.92,186.46z M345.15,185.39c-0.6,0-1.11-0.47-1.15-1.08c-0.04-0.64,0.44-1.18,1.08-1.22
				l0.13-0.01c0.62-0.04,1.18,0.46,1.21,1.09c0.03,0.64-0.46,1.18-1.09,1.21l-0.1,0.01C345.19,185.39,345.17,185.39,345.15,185.39z
				 M354.62,185.39c-0.02,0-0.05,0-0.07,0c-0.64-0.03-1.18-0.58-1.14-1.21c0.03-0.64,0.55-1.13,1.16-1.1l0.13,0.01
				c0.64,0.04,1.12,0.59,1.08,1.22C355.73,184.92,355.23,185.39,354.62,185.39z"/>
		</g>
		<g>
			<path class="st2" d="M438.72,291.61c-0.01,0-0.07,0-0.08,0c-0.63-0.02-1.16-0.54-1.15-1.17c0.01-0.63,0.49-1.14,1.12-1.14l0.11,0
				c0.64,0,1.15,0.52,1.15,1.15S439.36,291.61,438.72,291.61z M447.91,291.17c-0.59,0-1.09-0.45-1.15-1.05
				c-0.06-0.63,0.41-1.19,1.04-1.25l0.1-0.01c0.62-0.07,1.2,0.4,1.26,1.03c0.06,0.63-0.4,1.2-1.03,1.26l-0.13,0.01
				C447.98,291.17,447.94,291.17,447.91,291.17z M429.42,291.17c-0.04,0-0.08,0-0.12-0.01l-0.1-0.01c-0.63-0.06-1.1-0.62-1.04-1.25
				c0.06-0.63,0.61-1.11,1.25-1.05l0.13,0.01c0.63,0.06,1.09,0.63,1.03,1.26C430.51,290.73,430.01,291.17,429.42,291.17z
				 M457.12,289.82c-0.53,0-1.01-0.37-1.13-0.92c-0.13-0.62,0.27-1.23,0.89-1.37l0.13-0.03c0.62-0.12,1.23,0.29,1.35,0.91
				s-0.29,1.23-0.92,1.35l-0.09,0.02C457.28,289.81,457.2,289.82,457.12,289.82z M420.2,289.82c-0.07,0-0.14-0.01-0.21-0.02
				l-0.13-0.03c-0.62-0.13-1.02-0.74-0.89-1.37c0.13-0.62,0.74-1.02,1.37-0.89c0.63,0.12,1.08,0.73,0.96,1.36
				C421.19,289.43,420.74,289.82,420.2,289.82z M466.16,287.57c-0.5,0-0.96-0.32-1.11-0.82c-0.18-0.61,0.17-1.25,0.78-1.43l0.1-0.03
				c0.61-0.18,1.25,0.16,1.44,0.77c0.18,0.61-0.16,1.25-0.77,1.44l-0.12,0.04C466.38,287.55,466.27,287.57,466.16,287.57z
				 M411.17,287.57c-0.11,0-0.22-0.02-0.33-0.05l-0.12-0.04c-0.61-0.19-0.95-0.83-0.76-1.44c0.19-0.61,0.84-0.95,1.44-0.76l0.1,0.03
				c0.61,0.18,0.95,0.83,0.77,1.44C412.12,287.25,411.66,287.57,411.17,287.57z M474.93,284.44c-0.45,0-0.88-0.27-1.06-0.71
				c-0.25-0.59,0.03-1.26,0.62-1.51l0.11-0.04c0.58-0.25,1.26,0.03,1.51,0.62c0.25,0.59-0.03,1.26-0.62,1.51l-0.11,0.04
				C475.23,284.41,475.08,284.44,474.93,284.44z M402.4,284.44c-0.15,0-0.3-0.03-0.44-0.09l-0.1-0.04c-0.59-0.24-0.87-0.91-0.63-1.5
				c0.24-0.59,0.91-0.88,1.5-0.64l0.12,0.05c0.59,0.25,0.87,0.92,0.62,1.51C403.28,284.17,402.85,284.44,402.4,284.44z
				 M393.98,280.45c-0.18,0-0.37-0.04-0.54-0.14l-0.1-0.05c-0.56-0.3-0.78-1-0.48-1.56s1-0.78,1.56-0.48l0.11,0.06
				c0.56,0.3,0.77,1,0.47,1.56C394.78,280.23,394.39,280.45,393.98,280.45z M483.39,280.44c-0.41,0-0.82-0.21-1.02-0.59
				c-0.3-0.56-0.12-1.24,0.44-1.55l0.1-0.05c0.56-0.31,1.26-0.1,1.56,0.46s0.1,1.26-0.46,1.56c0,0-0.05,0.03-0.06,0.03
				C483.77,280.39,483.58,280.44,483.39,280.44z M491.34,275.67c-0.37,0-0.74-0.18-0.96-0.51c-0.36-0.53-0.21-1.25,0.31-1.6
				l0.1-0.07c0.53-0.35,1.25-0.21,1.6,0.32c0.35,0.53,0.21,1.25-0.32,1.6l-0.09,0.06C491.79,275.61,491.56,275.67,491.34,275.67z
				 M385.99,275.66c-0.22,0-0.45-0.06-0.65-0.2l-0.08-0.05c-0.53-0.35-0.68-1.06-0.34-1.6c0.35-0.53,1.06-0.68,1.6-0.34l0.11,0.08
				c0.53,0.36,0.67,1.07,0.31,1.6C386.72,275.49,386.36,275.66,385.99,275.66z M498.82,270.12c-0.34,0-0.68-0.15-0.91-0.44
				c-0.4-0.5-0.31-1.22,0.19-1.62c0.49-0.41,1.25-0.37,1.66,0.12c0.41,0.49,0.37,1.19-0.12,1.6l-0.11,0.09
				C499.33,270.04,499.07,270.12,498.82,270.12z M378.5,270.12c-0.26,0-0.52-0.09-0.73-0.26l-0.1-0.08
				c-0.49-0.41-0.56-1.13-0.15-1.62c0.41-0.49,1.13-0.55,1.62-0.15l0.08,0.07c0.49,0.4,0.56,1.13,0.16,1.62
				C379.17,269.97,378.84,270.12,378.5,270.12z M505.73,263.87c-0.29,0-0.58-0.11-0.81-0.33c-0.46-0.45-0.46-1.18-0.02-1.63
				l0.09-0.09c0.45-0.45,1.18-0.45,1.63,0c0.45,0.45,0.45,1.18,0,1.63l-0.07,0.07C506.33,263.76,506.03,263.87,505.73,263.87z
				 M371.6,263.86c-0.29,0-0.58-0.11-0.81-0.33l-0.09-0.09c-0.45-0.45-0.45-1.18,0-1.63s1.18-0.45,1.63,0l0.07,0.07
				c0.45,0.45,0.46,1.18,0.01,1.63C372.2,263.75,371.9,263.86,371.6,263.86z M511.99,256.98c-0.26,0-0.52-0.09-0.74-0.27
				c-0.49-0.41-0.56-1.13-0.15-1.62l0.07-0.08c0.4-0.49,1.13-0.56,1.62-0.16c0.49,0.4,0.56,1.13,0.16,1.62l-0.08,0.1
				C512.65,256.84,512.32,256.98,511.99,256.98z M365.34,256.97c-0.33,0-0.66-0.14-0.89-0.42l-0.07-0.08
				c-0.41-0.49-0.34-1.22,0.15-1.62c0.49-0.41,1.22-0.34,1.62,0.15l0.08,0.1c0.4,0.49,0.33,1.22-0.16,1.62
				C365.85,256.88,365.59,256.97,365.34,256.97z M517.55,249.51c-0.22,0-0.44-0.06-0.64-0.19c-0.53-0.35-0.67-1.07-0.32-1.6
				l0.07-0.1c0.36-0.53,1.07-0.66,1.6-0.31c0.53,0.36,0.67,1.07,0.31,1.6l-0.06,0.09C518.29,249.33,517.93,249.51,517.55,249.51z
				 M359.78,249.5c-0.37,0-0.73-0.18-0.96-0.51l-0.07-0.11c-0.35-0.53-0.21-1.25,0.33-1.6c0.53-0.35,1.25-0.21,1.6,0.33l0.06,0.08
				c0.36,0.53,0.22,1.24-0.31,1.6C360.22,249.43,360,249.5,359.78,249.5z M522.36,241.53c-0.18,0-0.36-0.04-0.53-0.13
				c-0.57-0.29-0.79-0.99-0.5-1.55l0.07-0.13c0.31-0.56,1.01-0.76,1.57-0.45c0.56,0.31,0.76,1.01,0.45,1.57l-0.04,0.07
				C523.18,241.3,522.78,241.53,522.36,241.53z M354.97,241.52c-0.41,0-0.81-0.22-1.02-0.61l-0.05-0.1
				c-0.3-0.56-0.09-1.26,0.47-1.56c0.56-0.3,1.26-0.09,1.56,0.47l0.05,0.1c0.3,0.56,0.09,1.26-0.47,1.56
				C355.35,241.47,355.16,241.52,354.97,241.52z M526.36,233.11c-0.15,0-0.3-0.03-0.44-0.09c-0.59-0.25-0.87-0.92-0.62-1.51
				l0.04-0.1c0.24-0.59,0.92-0.87,1.5-0.63c0.59,0.24,0.87,0.92,0.63,1.5l-0.05,0.11C527.24,232.84,526.81,233.11,526.36,233.11z
				 M350.98,233.1c-0.45,0-0.88-0.27-1.06-0.71l-0.05-0.11c-0.24-0.59,0.04-1.26,0.63-1.5c0.59-0.24,1.26,0.04,1.5,0.63l0.04,0.1
				c0.25,0.59-0.03,1.26-0.62,1.51C351.28,233.08,351.13,233.1,350.98,233.1z M529.5,224.35c-0.12,0-0.23-0.02-0.35-0.06
				c-0.61-0.19-0.94-0.84-0.75-1.45c0.18-0.61,0.83-1,1.44-0.83c0.61,0.18,0.98,0.78,0.8,1.39l-0.04,0.14
				C530.45,224.03,529.99,224.35,529.5,224.35z M347.83,224.34c-0.49,0-0.95-0.32-1.1-0.82l-0.03-0.11
				c-0.19-0.61,0.16-1.25,0.76-1.44c0.6-0.19,1.25,0.15,1.44,0.76l0.03,0.11c0.19,0.61-0.16,1.25-0.76,1.44
				C348.06,224.32,347.94,224.34,347.83,224.34z M531.77,215.31c-0.07,0-0.14-0.01-0.21-0.02c-0.63-0.11-1.04-0.71-0.93-1.34
				l0.03-0.14c0.13-0.62,0.74-1.02,1.36-0.89c0.62,0.13,1.02,0.74,0.89,1.36l-0.02,0.08C532.8,214.92,532.32,215.31,531.77,215.31z
				 M345.56,215.3c-0.54,0-1.02-0.38-1.13-0.93l-0.02-0.1c-0.13-0.62,0.27-1.23,0.89-1.36c0.62-0.13,1.23,0.27,1.36,0.89l0.03,0.13
				c0.12,0.63-0.29,1.23-0.91,1.35C345.71,215.3,345.64,215.3,345.56,215.3z M533.14,206.1c-0.03,0-0.06,0-0.09,0
				c-0.64-0.05-1.11-0.6-1.06-1.24l0.01-0.15c0.07-0.63,0.62-1.1,1.26-1.03c0.63,0.06,1.09,0.63,1.03,1.26l-0.01,0.08
				C534.24,205.64,533.73,206.1,533.14,206.1z M344.2,206.09c-0.58,0-1.08-0.44-1.15-1.04l-0.01-0.13
				c-0.06-0.63,0.41-1.19,1.05-1.25c0.63-0.07,1.19,0.41,1.25,1.05l0.01,0.1c0.06,0.63-0.4,1.2-1.03,1.26
				C344.28,206.09,344.24,206.09,344.2,206.09z M533.6,196.8c-0.64,0-1.15-0.52-1.15-1.15v-0.12c0-0.02,0-0.03,0-0.05s0-0.03,0-0.05
				v-0.12c0-0.64,0.52-1.15,1.15-1.15s1.15,0.52,1.15,1.15v0.12c0,0.02,0,0.03,0,0.05s0,0.03,0,0.05v0.12
				C534.75,196.28,534.23,196.8,533.6,196.8z M343.74,196.79c-0.64,0-1.15-0.52-1.15-1.15v-0.11c0-0.64,0.52-1.16,1.15-1.16
				s1.15,0.51,1.15,1.15v0.11C344.89,196.27,344.38,196.79,343.74,196.79z M344.18,187.49c-0.04,0-0.08,0-0.12-0.01
				c-0.63-0.06-1.09-0.63-1.03-1.26l0.01-0.1c0.06-0.64,0.63-1.11,1.25-1.05c0.63,0.06,1.1,0.62,1.05,1.25l-0.01,0.13
				C345.27,187.05,344.77,187.49,344.18,187.49z M533.14,187.28c-0.58,0-1.08-0.44-1.15-1.04l-0.01-0.11
				c-0.06-0.63,0.4-1.2,1.03-1.26c0.62-0.07,1.2,0.4,1.26,1.03l0.01,0.11c0.06,0.63-0.4,1.2-1.03,1.26
				C533.22,187.28,533.18,187.28,533.14,187.28z M345.53,178.27c-0.07,0-0.15-0.01-0.22-0.02c-0.62-0.12-1.03-0.73-0.91-1.35
				l0.02-0.11c0.12-0.62,0.73-1.03,1.35-0.91c0.62,0.12,1.03,0.73,0.91,1.35l-0.02,0.11C346.55,177.89,346.07,178.27,345.53,178.27z
				 M531.77,178.07c-0.55,0-1.03-0.39-1.13-0.95c-0.13-0.62,0.26-1.28,0.89-1.41c0.62-0.13,1.23,0.23,1.36,0.85l0.03,0.14
				c0.11,0.63-0.3,1.23-0.93,1.34C531.91,178.06,531.84,178.07,531.77,178.07z M347.77,169.24c-0.11,0-0.22-0.02-0.33-0.05
				c-0.61-0.18-0.95-0.83-0.77-1.44l0.03-0.1c0.18-0.61,0.82-0.96,1.43-0.78c0.61,0.18,0.96,0.82,0.78,1.43l-0.04,0.12
				C348.72,168.92,348.27,169.24,347.77,169.24z M529.51,169.04c-0.49,0-0.94-0.31-1.1-0.8l-0.04-0.14
				c-0.18-0.61,0.17-1.25,0.78-1.43c0.61-0.18,1.25,0.17,1.43,0.78l0.03,0.08c0.19,0.61-0.14,1.26-0.75,1.45
				C529.74,169.02,529.62,169.04,529.51,169.04z M350.9,160.46c-0.15,0-0.29-0.03-0.44-0.09c-0.59-0.24-0.87-0.92-0.63-1.5
				l0.04-0.11c0.24-0.59,0.91-0.87,1.5-0.63c0.59,0.24,0.87,0.92,0.63,1.5l-0.04,0.11C351.78,160.19,351.35,160.46,350.9,160.46z
				 M526.36,160.27c-0.45,0-0.88-0.27-1.06-0.71l-0.04-0.11c-0.25-0.59,0.03-1.26,0.62-1.51c0.58-0.24,1.26,0.03,1.51,0.62
				l0.04,0.11c0.25,0.59-0.03,1.26-0.62,1.51C526.66,160.24,526.51,160.27,526.36,160.27z M354.87,152.04
				c-0.18,0-0.37-0.04-0.54-0.14c-0.56-0.3-0.77-1-0.47-1.56l0.05-0.1c0.3-0.56,0.99-0.78,1.56-0.48c0.56,0.3,0.78,1,0.48,1.56
				l-0.06,0.11C355.68,151.82,355.28,152.04,354.87,152.04z M522.37,151.86c-0.42,0-0.82-0.23-1.02-0.62
				c-0.31-0.56-0.12-1.3,0.43-1.61c0.56-0.3,1.24-0.14,1.54,0.42l0.07,0.12c0.29,0.56,0.08,1.26-0.49,1.56
				C522.73,151.82,522.55,151.86,522.37,151.86z M359.66,144.05c-0.22,0-0.45-0.06-0.65-0.2c-0.53-0.36-0.67-1.07-0.31-1.6
				l0.05-0.08c0.35-0.53,1.06-0.68,1.6-0.34c0.53,0.35,0.68,1.06,0.34,1.6l-0.08,0.11C360.39,143.87,360.03,144.05,359.66,144.05z
				 M517.57,143.88c-0.37,0-0.73-0.18-0.96-0.51l-0.06-0.1c-0.36-0.53-0.22-1.24,0.31-1.6c0.53-0.36,1.25-0.22,1.6,0.31l0.06,0.1
				c0.36,0.53,0.22,1.24-0.31,1.6C518.01,143.81,517.79,143.88,517.57,143.88z M365.2,136.56c-0.26,0-0.52-0.09-0.73-0.26
				c-0.49-0.4-0.56-1.13-0.16-1.62l0.07-0.09c0.4-0.49,1.13-0.57,1.62-0.16c0.49,0.4,0.57,1.13,0.16,1.62l-0.07,0.09
				C365.87,136.42,365.54,136.56,365.2,136.56z M512.01,136.4c-0.33,0-0.66-0.14-0.89-0.42l-0.08-0.1c-0.4-0.49-0.33-1.22,0.16-1.62
				c0.49-0.4,1.22-0.33,1.62,0.16l0.07,0.08c0.41,0.49,0.34,1.22-0.15,1.62C512.53,136.32,512.27,136.4,512.01,136.4z M371.47,129.6
				c-0.29,0-0.57-0.1-0.79-0.31c-0.45-0.45-0.49-1.14-0.05-1.6l0.1-0.1c0.45-0.45,1.19-0.44,1.63,0.01
				c0.45,0.45,0.44,1.18-0.01,1.63C372.11,129.48,371.78,129.6,371.47,129.6z M505.74,129.51c-0.3,0-0.6-0.12-0.83-0.35
				c-0.45-0.45-0.49-1.21-0.04-1.66c0.45-0.45,1.15-0.49,1.6-0.04l0.1,0.1c0.44,0.46,0.43,1.19-0.03,1.63
				C506.32,129.4,506.03,129.51,505.74,129.51z M378.34,123.39c-0.33,0-0.66-0.14-0.89-0.42c-0.4-0.49-0.33-1.22,0.16-1.62
				l0.08-0.07c0.49-0.41,1.22-0.34,1.62,0.15c0.41,0.49,0.34,1.22-0.15,1.62l-0.1,0.08C378.86,123.3,378.6,123.39,378.34,123.39z
				 M498.84,123.26c-0.25,0-0.5-0.08-0.71-0.25l-0.11-0.09c-0.49-0.41-0.56-1.13-0.15-1.62c0.41-0.49,1.13-0.56,1.62-0.15l0.07,0.05
				c0.5,0.4,0.58,1.12,0.19,1.62C499.51,123.11,499.18,123.26,498.84,123.26z M385.81,117.82c-0.37,0-0.73-0.18-0.96-0.51
				c-0.36-0.53-0.22-1.24,0.31-1.6l0.11-0.07c0.53-0.35,1.25-0.21,1.6,0.33c0.35,0.53,0.21,1.25-0.33,1.6l-0.08,0.06
				C386.26,117.76,386.03,117.82,385.81,117.82z M491.36,117.71c-0.22,0-0.44-0.06-0.64-0.2l-0.09-0.06
				c-0.53-0.35-0.67-1.07-0.32-1.6c0.35-0.53,1.07-0.67,1.6-0.32l0.1,0.07c0.53,0.35,0.67,1.07,0.31,1.6
				C492.09,117.53,491.73,117.71,491.36,117.71z M393.79,113.01c-0.41,0-0.81-0.22-1.02-0.61c-0.3-0.56-0.09-1.26,0.47-1.56
				l0.1-0.05c0.56-0.3,1.26-0.09,1.56,0.47s0.09,1.26-0.47,1.56l-0.1,0.05C394.16,112.97,393.97,113.01,393.79,113.01z
				 M483.37,112.92c-0.19,0-0.38-0.04-0.55-0.14l-0.09-0.05c-0.56-0.3-0.78-1-0.48-1.56c0.3-0.56,1-0.78,1.56-0.48l0.11,0.06
				c0.56,0.3,0.77,1,0.46,1.56C484.17,112.7,483.78,112.92,483.37,112.92z M402.2,109.01c-0.45,0-0.88-0.27-1.06-0.71
				c-0.25-0.59,0.03-1.26,0.62-1.51l0.11-0.04c0.58-0.24,1.26,0.03,1.51,0.62c0.25,0.59-0.03,1.26-0.62,1.51l-0.11,0.04
				C402.5,108.99,402.35,109.01,402.2,109.01z M474.95,108.93c-0.14,0-0.29-0.03-0.43-0.08l-0.12-0.05
				c-0.59-0.25-0.87-0.92-0.62-1.51c0.25-0.59,0.92-0.87,1.51-0.62l0.1,0.04c0.59,0.24,0.87,0.91,0.63,1.5
				C475.83,108.66,475.4,108.93,474.95,108.93z M410.96,105.86c-0.5,0-0.95-0.32-1.1-0.82c-0.18-0.61,0.16-1.25,0.77-1.44l0.1-0.03
				c0.61-0.19,1.25,0.15,1.44,0.76c0.19,0.61-0.15,1.25-0.76,1.44l-0.12,0.04C411.18,105.85,411.07,105.86,410.96,105.86z
				 M466.18,105.8c-0.11,0-0.22-0.02-0.33-0.05l-0.12-0.04c-0.61-0.18-0.95-0.83-0.77-1.44c0.18-0.61,0.83-0.95,1.44-0.77l0.1,0.03
				c0.61,0.18,0.96,0.82,0.78,1.43C467.13,105.48,466.67,105.8,466.18,105.8z M419.99,103.59c-0.54,0-1.03-0.38-1.13-0.94
				c-0.12-0.63,0.29-1.23,0.92-1.35l0.09-0.02c0.63-0.13,1.23,0.27,1.37,0.89c0.13,0.62-0.27,1.23-0.89,1.37l-0.13,0.03
				C420.14,103.59,420.07,103.59,419.99,103.59z M457.14,103.55c-0.07,0-0.15-0.01-0.22-0.02l-0.11-0.02
				c-0.62-0.12-1.04-0.72-0.92-1.35s0.73-1.04,1.35-0.91l0.12,0.02c0.62,0.12,1.03,0.73,0.91,1.35
				C458.16,103.17,457.68,103.55,457.14,103.55z M429.21,102.22c-0.58,0-1.08-0.44-1.15-1.04c-0.06-0.63,0.4-1.2,1.03-1.26
				l0.13-0.01c0.64-0.06,1.2,0.41,1.25,1.05c0.06,0.63-0.41,1.19-1.04,1.25l-0.1,0.01C429.28,102.22,429.24,102.22,429.21,102.22z
				 M447.92,102.2c-0.03,0-0.07,0-0.1,0l-0.11-0.01c-0.63-0.06-1.1-0.62-1.04-1.25c0.06-0.63,0.61-1.11,1.25-1.05
				c0,0,0.06,0.01,0.06,0.01c0.63,0.06,1.12,0.62,1.07,1.26C448.99,101.75,448.51,102.2,447.92,102.2z M438.62,101.76h-0.12
				c-0.64,0-1.15-0.52-1.15-1.15s0.52-1.15,1.15-1.15h0.12c0.64,0,1.15,0.52,1.15,1.15S439.26,101.76,438.62,101.76z"/>
		</g>
		<g>
			<path class="st2" d="M485.59,183.48c-0.6,0-1.1-0.46-1.15-1.06c-0.05-0.63,0.43-1.19,1.06-1.24l0.12-0.01
				c0.66-0.05,1.19,0.43,1.24,1.06c0.05,0.64-0.43,1.19-1.06,1.24l-0.11,0.01C485.65,183.48,485.62,183.48,485.59,183.48z
				 M476.34,182.78c-0.09,0-0.17-0.01-0.26-0.03l-0.11-0.02c-0.62-0.14-1.01-0.76-0.87-1.38c0.14-0.62,0.75-1.02,1.38-0.87
				l0.12,0.03c0.62,0.14,1.01,0.76,0.86,1.38C477.34,182.42,476.87,182.78,476.34,182.78z M494.76,181.42
				c-0.46,0-0.9-0.28-1.07-0.73c-0.23-0.59,0.06-1.26,0.65-1.49l0.11-0.04c0.59-0.23,1.26,0.06,1.49,0.65s-0.06,1.26-0.65,1.49
				l-0.11,0.04C495.04,181.39,494.9,181.42,494.76,181.42z M467.59,179.36c-0.2,0-0.4-0.05-0.58-0.16l-0.08-0.04
				c-0.56-0.31-0.76-1.01-0.45-1.57c0.31-0.56,1.01-0.76,1.57-0.45l0.12,0.07c0.55,0.32,0.73,1.03,0.41,1.58
				C468.37,179.16,467.99,179.36,467.59,179.36z M502.93,176.71c-0.34,0-0.67-0.14-0.9-0.42c-0.4-0.5-0.34-1.2,0.15-1.6l0.09-0.07
				c0.49-0.4,1.22-0.32,1.62,0.17c0.4,0.5,0.32,1.22-0.17,1.62c0,0-0.05,0.04-0.05,0.04C503.46,176.63,503.19,176.71,502.93,176.71z
				 M460.25,173.51c-0.31,0-0.62-0.12-0.84-0.37l-0.08-0.08c-0.43-0.47-0.41-1.2,0.06-1.63c0.47-0.43,1.2-0.41,1.63,0.06l0.08,0.08
				c0.43,0.47,0.41,1.2-0.06,1.63C460.81,173.41,460.53,173.51,460.25,173.51z M509.32,169.88c-0.23,0-0.46-0.07-0.67-0.21
				c-0.52-0.37-0.64-1.09-0.28-1.61c0.35-0.53,1.09-0.71,1.62-0.35c0.53,0.35,0.7,1.03,0.34,1.56l-0.08,0.12
				C510.04,169.71,509.68,169.88,509.32,169.88z M454.94,165.76c-0.43,0-0.84-0.24-1.04-0.66l-0.04-0.09
				c-0.29-0.57-0.05-1.26,0.52-1.55c0.57-0.29,1.26-0.05,1.55,0.52l0.06,0.12c0.28,0.57,0.03,1.26-0.54,1.54
				C455.27,165.72,455.1,165.76,454.94,165.76z M513.43,161.43c-0.11,0-0.21-0.01-0.32-0.04c-0.61-0.18-0.97-0.81-0.79-1.43
				l0.04-0.14c0.19-0.61,0.83-0.94,1.45-0.75c0.61,0.19,0.94,0.84,0.75,1.45l-0.03,0.08C514.39,161.1,513.93,161.43,513.43,161.43z
				 M452.15,156.79c-0.56,0-1.05-0.41-1.14-0.98l-0.02-0.11c-0.1-0.63,0.33-1.22,0.96-1.31c0.63-0.1,1.22,0.33,1.32,0.96l0.02,0.12
				c0.1,0.63-0.34,1.22-0.97,1.31C452.27,156.78,452.21,156.79,452.15,156.79z M514.85,152.14c-0.64,0-1.15-0.52-1.15-1.15v-0.12
				c0,0,0,0,0-0.01s0,0,0-0.01v-0.12c0-0.64,0.52-1.15,1.15-1.15s1.15,0.52,1.15,1.15v0.12c0,0,0,0,0,0.01s0,0,0,0.01v0.12
				C516.01,151.63,515.49,152.14,514.85,152.14z M452.13,147.4c-0.06,0-0.12,0-0.17-0.01c-0.63-0.1-1.06-0.68-0.97-1.31l0.01-0.09
				c0.08-0.63,0.66-1.08,1.29-1c0.63,0.08,1.08,0.66,1,1.29l-0.02,0.14C453.19,146.99,452.69,147.4,452.13,147.4z M513.46,142.72
				c-0.49,0-0.94-0.31-1.1-0.81l-0.04-0.11c-0.19-0.61,0.15-1.25,0.75-1.45c0.62-0.19,1.26,0.15,1.45,0.75l0.04,0.11
				c0.19,0.61-0.15,1.25-0.75,1.45C513.69,142.71,513.57,142.72,513.46,142.72z M454.87,138.36c-0.16,0-0.32-0.03-0.46-0.1
				c-0.58-0.27-0.84-0.92-0.57-1.49l0.06-0.13c0.29-0.57,0.98-0.8,1.55-0.52c0.57,0.28,0.8,0.98,0.52,1.55
				C455.76,138.1,455.32,138.36,454.87,138.36z M509.38,134.26c-0.36,0-0.72-0.17-0.95-0.49l-0.07-0.11
				c-0.36-0.53-0.22-1.24,0.31-1.6s1.25-0.22,1.6,0.31l0.06,0.08c0.36,0.52,0.24,1.24-0.29,1.61
				C509.84,134.2,509.61,134.26,509.38,134.26z M460.16,130.64c-0.28,0-0.56-0.1-0.79-0.31c-0.47-0.43-0.49-1.16-0.06-1.63
				l0.07-0.08c0.43-0.47,1.16-0.5,1.63-0.07c0.47,0.43,0.5,1.16,0.07,1.63l-0.09,0.09C460.77,130.52,460.46,130.64,460.16,130.64z
				 M502.96,127.37c-0.24,0-0.48-0.08-0.69-0.24l-0.09-0.07c-0.5-0.4-0.58-1.12-0.19-1.62c0.39-0.5,1.12-0.59,1.62-0.19
				c0,0,0.05,0.04,0.05,0.04c0.5,0.4,0.6,1.14,0.21,1.64C503.64,127.22,503.3,127.37,502.96,127.37z M467.48,124.76
				c-0.4,0-0.78-0.2-1-0.57c-0.32-0.55-0.14-1.26,0.41-1.58l0.11-0.07c0.55-0.31,1.26-0.12,1.57,0.43c0.32,0.55,0.12,1.26-0.43,1.57
				l-0.09,0.05C467.88,124.71,467.68,124.76,467.48,124.76z M494.86,122.67c-0.14,0-0.28-0.02-0.41-0.08l-0.12-0.05
				c-0.59-0.23-0.88-0.9-0.65-1.49s0.9-0.88,1.49-0.65l0.1,0.04c0.59,0.23,0.89,0.89,0.67,1.49
				C495.76,122.39,495.32,122.67,494.86,122.67z M476.21,121.3c-0.53,0-1-0.36-1.12-0.89c-0.14-0.62,0.24-1.24,0.86-1.38l0.11-0.02
				c0.62-0.14,1.24,0.24,1.39,0.86c0.15,0.62-0.24,1.24-0.86,1.39l-0.12,0.03C476.39,121.29,476.3,121.3,476.21,121.3z
				 M485.7,120.59c-0.02,0-0.05,0-0.08,0l-0.13-0.01c-0.64-0.05-1.11-0.6-1.06-1.24c0.05-0.63,0.58-1.12,1.24-1.06l0.1,0.01
				c0.63,0.04,1.12,0.59,1.08,1.22C486.81,120.12,486.3,120.59,485.7,120.59z"/>
		</g>
		<circle class="st3" cx="324.79" cy="283.78" r="48.9"/>
	</g>
	<g>
		<path class="st4" d="M152.61,518.59c-4.47,7.79-11.62,10.86-22.86,10.86c-18.26,0-27.97-11.88-27.97-28.87v-8.68
			c0-18.78,9.2-28.61,25.93-28.61c17.5,0,25.8,10.47,25.8,29.38v7.02h-38.19v0.26c0,9.96,3.83,17.75,13.92,17.75
			c7.54,0,10.6-2.3,13.16-6.26L152.61,518.59z M115.44,489.21h24.39c-0.51-9.32-4.34-14.05-12.13-14.05
			C119.78,475.16,116.08,480.53,115.44,489.21z"/>
		<path class="st4" d="M172.41,464.43h13.41v5.75c2.81-3.83,7.41-6.9,15.84-6.9c13.16,0,23.25,6.64,23.25,25.03v39.98h-13.54v-38.45
			c0-11.24-5.11-14.43-12.13-14.43c-8.43,0-13.16,5.75-13.16,14.31v38.57h-13.67V464.43z"/>
		<path class="st4" d="M280.72,481.16c-3.06-3.96-6.26-5.75-13.92-5.75c-5.75,0-9.96,1.92-9.96,6.51c0,5.36,4.73,7.02,12.13,7.92
			c14.18,1.66,23.37,6.64,23.37,20.18c0,11.75-8.05,19.41-24.52,19.41c-13.03,0-20.44-3.58-25.67-10.6l10.35-7.41
			c2.94,3.96,6.77,6,15.2,6c7.02,0,11.11-2.56,11.11-7.02c0-5.24-3.32-6.77-13.28-8.05c-12.13-1.53-22.35-6.64-22.35-20.05
			c0-11.37,8.3-19.03,23.89-19.03c10.47,0,18.78,2.68,23.76,10.6L280.72,481.16z"/>
		<path class="st4" d="M310.48,464.43h13.41v5.75c2.56-3.83,7.41-6.9,14.94-6.9c8.05,0,14.43,3.19,18.26,9.2
			c4.22-5.75,10.73-9.2,18.65-9.2c13.79,0,22.1,8.43,22.1,25.03v39.98h-13.67v-38.45c0-10.47-4.34-14.43-11.37-14.43
			c-6.77,0-11.62,5.11-11.88,13.67v39.21H347.4v-38.45c0-10.86-4.73-14.43-11.24-14.43c-7.02,0-12.01,5.36-12.01,14.31v38.57h-13.67
			V464.43z"/>
		<path class="st4" d="M438.73,490.62h13.79v-5.36c0-8.05-3.07-10.22-12.64-10.22c-6.9,0-10.35,0.77-13.41,5.75l-9.83-6.9
			c4.6-7.54,11.5-10.6,24.14-10.6c16.35,0,25.16,5.11,25.16,22.09v42.92h-13.41v-5.87c-3.07,4.98-7.02,7.02-14.81,7.02
			c-14.05,0-22.74-7.15-22.74-19.93C414.97,495.85,425.06,490.62,438.73,490.62z M452.52,501.09h-12.77
			c-8.05,0-11.37,2.81-11.37,8.43c0,5.87,4.34,8.3,10.86,8.3c8.3,0,13.28-2.55,13.28-13.66V501.09z"/>
		<path class="st4" d="M486.24,440.16h13.67v64.88c0,6.9,1.28,11.24,9.71,11.24v12.01c-16.6,0-23.37-5.36-23.37-20.05V440.16z"/>
		<path class="st4" d="M528.01,440.16h13.67v64.88c0,6.9,1.28,11.24,9.71,11.24v12.01c-16.6,0-23.37-5.36-23.37-20.05V440.16z"/>
		<path class="st4" d="M617.93,518.59c-4.47,7.79-11.62,10.86-22.86,10.86c-18.26,0-27.97-11.88-27.97-28.87v-8.68
			c0-18.78,9.2-28.61,25.93-28.61c17.5,0,25.8,10.47,25.8,29.38v7.02h-38.19v0.26c0,9.96,3.83,17.75,13.92,17.75
			c7.54,0,10.6-2.3,13.16-6.26L617.93,518.59z M580.77,489.21h24.39c-0.51-9.32-4.34-14.05-12.13-14.05
			C585.11,475.16,581.4,480.53,580.77,489.21z"/>
		<path class="st4" d="M637.73,464.43h13.41v5.75c2.81-3.83,7.41-6.9,15.84-6.9c13.16,0,23.25,6.64,23.25,25.03v39.98h-13.54v-38.45
			c0-11.24-5.11-14.43-12.13-14.43c-8.43,0-13.16,5.75-13.16,14.31v38.57h-13.67V464.43z"/>
	</g>
	<g>
		<g>
			<g>
				<g>
					<polygon class="st5" points="323.32,287.93 325.32,289.92 324.26,290.98 322.26,288.98 320.25,290.98 319.19,289.92 
						321.21,287.93 319.19,285.91 320.25,284.85 322.26,286.87 324.26,284.85 325.32,285.91 					"/>
				</g>
			</g>
		</g>
		<g>
			<g>
				<g>
					<polygon class="st5" points="337.27,194.8 339.29,196.82 338.23,197.87 336.23,195.86 334.22,197.87 333.16,196.82 
						335.18,194.8 333.16,192.79 334.22,191.73 336.23,193.74 338.23,191.73 339.29,192.79 					"/>
				</g>
			</g>
		</g>
		<g>
			<g>
				<polygon class="st5" points="488.28,149 490.29,150.99 489.24,152.05 487.22,150.05 485.2,152.05 484.15,150.99 486.16,149 
					484.15,146.98 485.2,145.92 487.22,147.94 489.24,145.92 490.29,146.98 				"/>
			</g>
		</g>
		<g>
			<g>
				<polygon class="st5" points="460.72,172.11 462.73,174.12 461.67,175.18 459.66,173.17 457.64,175.18 456.58,174.12 
					458.6,172.11 456.58,170.09 457.64,169.03 459.66,171.05 461.67,169.03 462.73,170.09 				"/>
			</g>
		</g>
		<g>
			<polygon class="st5" points="419.43,191.68 418.36,190.62 416.35,192.63 414.34,190.62 413.28,191.68 415.29,193.69 
				413.28,195.7 414.34,196.76 416.35,194.75 418.36,196.76 419.43,195.7 417.41,193.69 			"/>
		</g>
	</g>
	<g>
		<g>
			<path class="st5" d="M487.16,149.9c-0.25,0-0.49-0.11-0.66-0.31c-0.31-0.37-0.26-0.91,0.11-1.22c0.37-0.3,0.94-0.28,1.25,0.09
				s0.29,0.89-0.08,1.19l-0.06,0.05C487.55,149.84,487.35,149.9,487.16,149.9z"/>
		</g>
		<g>
			<path class="st5" d="M344.37,195.55c-0.47,0-0.86-0.38-0.86-0.85c-0.01-0.48,0.38-0.87,0.85-0.88l0.16,0
				c0.51,0,0.87,0.38,0.88,0.85s-0.38,0.87-0.85,0.88l-0.16,0C344.37,195.55,344.37,195.55,344.37,195.55z M352.59,195.44
				c-0.47,0-0.86-0.38-0.86-0.85c-0.01-0.48,0.38-0.87,0.85-0.88l0.16,0c0,0,0.01,0,0.01,0c0.47,0,0.86,0.38,0.86,0.85
				c0.01,0.48-0.38,0.87-0.85,0.88l-0.16,0C352.6,195.44,352.59,195.44,352.59,195.44z M360.81,195.32c-0.47,0-0.86-0.38-0.86-0.85
				c-0.01-0.48,0.37-0.87,0.85-0.88l0.16,0c0.43,0.01,0.87,0.37,0.88,0.85c0.01,0.48-0.37,0.87-0.85,0.88l-0.16,0
				C360.82,195.32,360.82,195.32,360.81,195.32z M369.04,195.21c-0.47,0-0.86-0.38-0.86-0.85c-0.01-0.48,0.37-0.87,0.85-0.88l0.16,0
				c0.44-0.02,0.87,0.37,0.88,0.85c0.01,0.48-0.37,0.87-0.85,0.88l-0.16,0C369.05,195.21,369.04,195.21,369.04,195.21z
				 M377.26,195.09c-0.47,0-0.86-0.38-0.86-0.85c-0.01-0.48,0.37-0.87,0.85-0.88l0.16,0c0,0,0.01,0,0.01,0
				c0.47,0,0.86,0.38,0.86,0.85c0.01,0.48-0.37,0.87-0.85,0.88l-0.16,0C377.27,195.09,377.27,195.09,377.26,195.09z M385.49,194.98
				c-0.47,0-0.86-0.38-0.86-0.85c-0.01-0.48,0.37-0.87,0.85-0.88l0.16,0c0,0,0.01,0,0.01,0c0.47,0,0.86,0.38,0.86,0.85
				c0.01,0.48-0.37,0.87-0.85,0.88l-0.16,0C385.49,194.98,385.49,194.98,385.49,194.98z M393.71,194.87c-0.47,0-0.86-0.38-0.86-0.85
				c-0.01-0.48,0.37-0.87,0.85-0.88l0.16,0c0.43-0.01,0.87,0.37,0.88,0.85c0.01,0.48-0.37,0.87-0.85,0.88l-0.16,0
				C393.72,194.87,393.71,194.87,393.71,194.87z M401.93,194.75c-0.47,0-0.86-0.38-0.87-0.85c-0.01-0.48,0.38-0.87,0.85-0.88l0.16,0
				c0,0,0.01,0,0.01,0c0.47,0,0.86,0.38,0.87,0.85c0.01,0.48-0.38,0.87-0.85,0.88l-0.16,0
				C401.94,194.75,401.94,194.75,401.93,194.75z M410.16,194.64c-0.47,0-0.86-0.38-0.87-0.85c-0.01-0.48,0.38-0.87,0.85-0.88l0.16,0
				c0,0,0.01,0,0.01,0c0.47,0,0.86,0.38,0.87,0.85c0.01,0.48-0.38,0.87-0.85,0.88l-0.16,0
				C410.17,194.64,410.16,194.64,410.16,194.64z M418.17,193.65c-0.32,0-0.62-0.18-0.77-0.48c-0.21-0.43-0.04-0.95,0.39-1.16
				l0.14-0.07c0.43-0.21,0.95-0.04,1.16,0.39c0.21,0.43,0.04,0.95-0.39,1.16l-0.14,0.07C418.43,193.62,418.3,193.65,418.17,193.65z
				 M425.53,189.98c-0.32,0-0.62-0.18-0.78-0.48c-0.21-0.43-0.04-0.95,0.39-1.16l0.14-0.07c0.43-0.21,0.95-0.04,1.16,0.39
				c0.21,0.43,0.04,0.95-0.39,1.16l-0.14,0.07C425.79,189.95,425.66,189.98,425.53,189.98z M432.89,186.31
				c-0.32,0-0.62-0.18-0.78-0.48c-0.21-0.43-0.04-0.95,0.39-1.16l0.14-0.07c0.43-0.21,0.95-0.04,1.16,0.39
				c0.21,0.43,0.04,0.95-0.39,1.16l-0.14,0.07C433.15,186.28,433.02,186.31,432.89,186.31z M440.25,182.64
				c-0.32,0-0.62-0.18-0.77-0.48c-0.21-0.43-0.04-0.95,0.39-1.16l0.14-0.07c0.43-0.21,0.95-0.04,1.16,0.39
				c0.21,0.43,0.04,0.95-0.39,1.16l-0.14,0.07C440.52,182.61,440.38,182.64,440.25,182.64z M447.62,178.97
				c-0.32,0-0.62-0.18-0.77-0.48c-0.21-0.43-0.04-0.95,0.39-1.16l0.14-0.07c0.43-0.21,0.95-0.04,1.16,0.39
				c0.21,0.43,0.04,0.95-0.39,1.16l-0.14,0.07C447.88,178.94,447.75,178.97,447.62,178.97z M454.98,175.3
				c-0.32,0-0.62-0.18-0.77-0.48c-0.21-0.43-0.04-0.95,0.39-1.16l0.14-0.07c0.43-0.21,0.95-0.04,1.16,0.39s0.04,0.95-0.39,1.16
				l-0.14,0.07C455.24,175.27,455.11,175.3,454.98,175.3z M461.95,171.05c-0.25,0-0.49-0.11-0.66-0.31
				c-0.31-0.37-0.26-0.91,0.11-1.22l0.12-0.1c0.37-0.31,0.91-0.26,1.22,0.11c0.31,0.37,0.26,0.91-0.11,1.22l-0.12,0.1
				C462.34,170.98,462.15,171.05,461.95,171.05z M468.25,165.76c-0.25,0-0.49-0.11-0.66-0.31c-0.31-0.37-0.26-0.91,0.11-1.22
				l0.12-0.1c0.37-0.31,0.91-0.26,1.22,0.11c0.31,0.37,0.26,0.91-0.11,1.22l-0.12,0.1C468.65,165.69,468.45,165.76,468.25,165.76z
				 M474.55,160.48c-0.25,0-0.49-0.1-0.66-0.31c-0.31-0.37-0.26-0.91,0.11-1.22l0.12-0.1c0.37-0.31,0.91-0.26,1.22,0.11
				c0.31,0.37,0.26,0.91-0.11,1.22l-0.12,0.1C474.95,160.41,474.75,160.48,474.55,160.48z M480.86,155.19
				c-0.25,0-0.49-0.11-0.66-0.31c-0.31-0.37-0.26-0.91,0.11-1.22l0.12-0.1c0.37-0.31,0.91-0.26,1.22,0.11
				c0.31,0.37,0.26,0.91-0.11,1.22l-0.12,0.1C481.25,155.12,481.05,155.19,480.86,155.19z"/>
		</g>
		<g>
			<path class="st5" d="M336.2,195.7c-0.04,0-0.08,0-0.12-0.01c-0.47-0.07-0.8-0.48-0.73-0.95l0.11-0.72l0.74-0.09
				c0,0,0.01,0,0.01,0c0.47,0,0.9,0.38,0.9,0.85c0,0.39-0.23,0.73-0.58,0.84C336.44,195.68,336.33,195.7,336.2,195.7z"/>
		</g>
		<g>
			<path class="st5" d="M323.51,280.27c-0.04,0-0.09,0-0.13-0.01c-0.47-0.07-0.8-0.51-0.72-0.99l0.02-0.16
				c0.07-0.47,0.51-0.8,0.99-0.72c0.47,0.07,0.8,0.51,0.72,0.99l-0.02,0.16C324.3,279.96,323.93,280.27,323.51,280.27z
				 M324.78,271.81c-0.04,0-0.09,0-0.13-0.01c-0.47-0.07-0.8-0.51-0.73-0.98l0.02-0.16c0.07-0.47,0.52-0.8,0.98-0.73
				c0.47,0.07,0.8,0.51,0.73,0.98l-0.02,0.16C325.57,271.51,325.2,271.81,324.78,271.81z M326.05,263.36c-0.04,0-0.09,0-0.13-0.01
				c-0.47-0.07-0.8-0.51-0.73-0.98l0.02-0.16c0.07-0.47,0.51-0.8,0.98-0.73c0.47,0.07,0.8,0.51,0.73,0.98l-0.02,0.16
				C326.84,263.05,326.47,263.36,326.05,263.36z M327.32,254.91c-0.04,0-0.09,0-0.13-0.01c-0.47-0.07-0.8-0.51-0.73-0.98l0.02-0.16
				c0.07-0.47,0.51-0.8,0.98-0.73c0.47,0.07,0.8,0.51,0.73,0.98l-0.02,0.16C328.11,254.6,327.74,254.91,327.32,254.91z
				 M328.59,246.46c-0.04,0-0.09,0-0.13-0.01c-0.47-0.07-0.8-0.51-0.72-0.99l0.02-0.16c0.07-0.47,0.51-0.8,0.99-0.72
				c0.47,0.07,0.8,0.51,0.72,0.99l-0.02,0.16C329.38,246.15,329.01,246.46,328.59,246.46z M329.86,238.01c-0.04,0-0.09,0-0.13-0.01
				c-0.47-0.07-0.8-0.51-0.73-0.98l0.02-0.16c0.07-0.47,0.52-0.8,0.98-0.73c0.47,0.07,0.8,0.51,0.73,0.98l-0.02,0.16
				C330.65,237.7,330.28,238.01,329.86,238.01z M331.13,229.55c-0.04,0-0.09,0-0.13-0.01c-0.47-0.07-0.8-0.51-0.73-0.98l0.02-0.16
				c0.07-0.47,0.52-0.8,0.98-0.73c0.47,0.07,0.8,0.51,0.73,0.98l-0.02,0.16C331.92,229.24,331.55,229.55,331.13,229.55z
				 M332.4,221.1c-0.04,0-0.09,0-0.13-0.01c-0.47-0.07-0.8-0.51-0.73-0.98l0.02-0.16c0.07-0.47,0.51-0.8,0.98-0.73
				c0.47,0.07,0.8,0.51,0.73,0.98l-0.02,0.16C333.19,220.79,332.82,221.1,332.4,221.1z M333.67,212.65c-0.04,0-0.09,0-0.13-0.01
				c-0.47-0.07-0.8-0.51-0.72-0.99l0.02-0.16c0.07-0.47,0.51-0.8,0.99-0.72c0.47,0.07,0.8,0.51,0.72,0.99l-0.02,0.16
				C334.46,212.34,334.09,212.65,333.67,212.65z M334.94,204.2c-0.04,0-0.09,0-0.13-0.01c-0.47-0.07-0.8-0.51-0.73-0.98l0.02-0.16
				c0.07-0.47,0.52-0.8,0.98-0.73c0.47,0.07,0.8,0.51,0.73,0.98l-0.02,0.16C335.73,203.89,335.36,204.2,334.94,204.2z"/>
		</g>
		<g>
			<path class="st5" d="M322.25,288.63c-0.04,0-0.09,0-0.13-0.01c-0.47-0.07-0.8-0.51-0.73-0.98c0.07-0.47,0.52-0.83,0.99-0.77
				c0.47,0.07,0.8,0.47,0.73,0.94l-0.01,0.08C323.04,288.33,322.67,288.63,322.25,288.63z"/>
		</g>
	</g>
</g>
</svg>
